<svg xmlns="http://www.w3.org/2000/svg" xmlns:xlink="http://www.w3.org/1999/xlink" width="500" zoomAndPan="magnify" viewBox="0 0 375 374.999991" height="500" preserveAspectRatio="xMidYMid meet" version="1.0"><defs><g/><clipPath id="7ed19d0099"><path d="M 47.089844 6 L 327.589844 6 L 327.589844 375 L 47.089844 375 Z M 47.089844 6 " clip-rule="nonzero"/></clipPath><clipPath id="2cf99d0113"><rect x="0" width="249" y="0" height="375"/></clipPath></defs><g clip-path="url(#7ed19d0099)"><path fill="#fbb03b" d="M 187.523438 269.820312 C 191.382812 269.820312 195.0625 271.035156 198.222656 273.5 L 327.847656 374.527344 L 327.847656 6.226562 L 47.199219 6.226562 L 47.199219 374.527344 L 176.828125 273.5 C 179.988281 271.035156 183.664062 269.820312 187.523438 269.820312 Z M 187.523438 269.820312 " fill-opacity="1" fill-rule="nonzero"/></g><g transform="matrix(1, 0, 0, 1, 84, 0)"><g clip-path="url(#2cf99d0113)"><g fill="#111827" fill-opacity="1"><g transform="translate(0.829706, 278.738254)"><g><path d="M 76.828125 -14.765625 C 76.828125 -1.566406 63.96875 5.03125 38.25 5.03125 C 32.65625 5.03125 29.351562 2.179688 28.34375 -3.515625 C 27.34375 -9.222656 26.84375 -17.222656 26.84375 -27.515625 C 26.84375 -49.203125 31.203125 -76.039062 39.921875 -108.03125 C 54.460938 -160.8125 70.007812 -191.898438 86.5625 -201.296875 C 88.789062 -202.640625 91.25 -203.3125 93.9375 -203.3125 C 96.625 -203.3125 97.96875 -198.945312 97.96875 -190.21875 C 97.96875 -181.5 97.519531 -173.785156 96.625 -167.078125 C 94.832031 -153.660156 91.644531 -136.328125 87.0625 -115.078125 C 82.476562 -93.828125 80.1875 -81.300781 80.1875 -77.5 Z M 99.640625 -105.015625 C 99.640625 -107.921875 101.257812 -109.820312 104.5 -110.71875 C 107.75 -111.613281 111.832031 -112.453125 116.75 -113.234375 C 121.675781 -114.015625 127.046875 -115.1875 132.859375 -116.75 C 138.671875 -118.320312 144.039062 -121.234375 148.96875 -125.484375 C 160.375 -135.316406 166.078125 -151.753906 166.078125 -174.796875 C 166.078125 -189.554688 161.097656 -200.847656 151.140625 -208.671875 C 141.191406 -216.503906 126.878906 -220.421875 108.203125 -220.421875 C 89.523438 -220.421875 72.019531 -216.507812 55.6875 -208.6875 C 49.65625 -205.769531 44.234375 -203.082031 39.421875 -200.625 C 34.609375 -198.164062 30.1875 -196.9375 26.15625 -196.9375 C 22.132812 -196.9375 20.125 -198.164062 20.125 -200.625 C 20.125 -204.425781 23.816406 -210.691406 31.203125 -219.421875 C 38.578125 -227.472656 50.257812 -234.960938 66.25 -241.890625 C 82.25 -248.828125 99.082031 -252.296875 116.75 -252.296875 C 150.082031 -252.515625 176.03125 -244.6875 194.59375 -228.8125 C 210.695312 -214.945312 218.75 -197 218.75 -174.96875 C 218.75 -152.9375 210.804688 -133.25 194.921875 -115.90625 C 179.046875 -98.570312 159.195312 -89.90625 135.375 -89.90625 C 111.550781 -89.90625 99.640625 -94.941406 99.640625 -105.015625 Z M 99.640625 -105.015625 "/></g></g></g></g></g></svg>